# xmcd CD database file
#
# Track frame offsets:
#	150
#	20349
#	40117
#	67038
#	96711
#
# Disc length: 1415 seconds
#
# Revision: 0
# Processed by: cddbd v1.5.1PL2 Copyright (c) Steve Scherf et al.
# Submitted via: CDex 1.51
#
DISCID=40058505
DTITLE=勝手にしやがれ - バーフライズ・ストンプ - マスカレード
DYEAR=2006
DGENRE=Jazz
TTITLE0=バーフライズ・ストンプ
TTITLE1=マスカレード
TTITLE2=バーフライズ・ストンプ
TTITLE3=マスカレード
TTITLE4=U-K-2
EXTD=YEAR: 2006
EXTT0=
EXTT1=
EXTT2=
EXTT3=
EXTT4=
PLAYORDER=
